<?xml version="1.0" encoding="UTF-8"?>
<svg width="120px" height="120px" viewBox="0 0 120 120" version="1.1" xmlns="http://www.w3.org/2000/svg" xmlns:xlink="http://www.w3.org/1999/xlink">
    <!-- Generator: Sketch 49.2 (51160) - http://www.bohemiancoding.com/sketch -->
    <title>Artboard Copy</title>
    <desc>Created with Sketch.</desc>
    <defs>
        <circle id="path-1" cx="60" cy="60" r="60"></circle>
    </defs>
    <g id="Artboard-Copy" stroke="none" stroke-width="1" fill="none" fill-rule="evenodd">
        <mask id="mask-2" fill="white" >
            <use xlink:href="#path-1"></use>
        </mask>
        <use id="Oval" fill="#1E2129" xlink:href="#path-1"></use>
        <path d="M30.677116,17.6868958 C27.3361031,25.1341224 23.2358306,32.2461172 18.3761755,39.0230934 L34.8913271,39.0230934 L38.308255,34.6664876 C39.0675761,33.6238759 39.6370584,33.1025779 40.0167189,33.1025779 C41.1557006,33.1025779 43.5475262,35.2250056 47.1922675,39.4699248 C53.9502254,30.8311419 59.4552208,19.9583541 63.707419,6.85123523 C68.7189383,8.71304189 71.7751599,9.96043364 72.8761755,10.5934479 C73.9771912,11.2264622 74.5276907,11.7849958 74.5276907,12.2690655 C74.5276907,12.7531353 73.8632947,13.2371977 72.5344828,13.7212675 C71.2056708,14.2053372 69.933827,15.713378 68.7189133,18.245435 C65.074172,25.3203003 60.7461066,31.4641701 55.7345873,36.6772288 C59.9108533,38.2411464 62.8721612,39.5443915 64.6185998,40.5870032 L87.7398119,40.5870032 L89.1065831,37.7943072 C89.5621757,37.1240568 89.9987788,36.7889366 90.4164054,36.7889366 C90.834032,36.7889366 91.6123245,37.1985279 92.7513062,38.0177229 L96.6238245,40.8104189 C98.1424667,41.9275029 99.0536383,42.6535966 99.3573668,42.9887218 C99.6610952,43.323847 99.8129572,43.7520561 99.8129572,44.273362 C99.8129572,44.7946678 98.787889,45.6883216 96.737722,46.9543502 L96.737722,54.6621912 C96.737722,57.119776 96.7756875,58.869848 96.8516196,59.9124597 L96.9655172,63.0402793 C96.9655172,63.5615851 96.6238279,64.0456476 95.9404389,64.4924812 C95.2570499,64.9393148 94.0231716,65.4978484 92.238767,66.1680988 C90.4543624,66.8383492 89.3153978,67.1734694 88.8218391,67.1734694 C88.3282804,67.1734694 88.0815047,66.6149358 88.0815047,65.4978518 L88.0815047,63.933942 L86.2591432,63.933942 L86.2591432,91.3023631 C86.2591432,92.9407529 86.562867,93.9647312 87.1703239,94.3743287 C87.7777808,94.7839261 89.7519861,94.9887218 93.092999,94.9887218 C96.4340118,94.9887218 98.63601,94.709455 99.6990596,94.150913 C100.762109,93.592371 101.502436,92.1401836 101.920063,89.7943072 C102.337689,87.4484308 102.774292,82.3657749 103.229885,74.5461869 L105.280042,74.5461869 C105.507838,80.6529127 106.07732,84.9350038 106.988506,87.3925886 C107.899691,89.8501734 109.266449,91.5630098 111.088819,92.5311493 C111.696276,92.8290384 112,93.2944831 112,93.9274973 C112,94.5605116 111.335604,95.9754634 110.006792,98.1723953 C108.67798,100.369327 106.267172,101.672572 102.774295,102.08217 C99.2814176,102.491767 95.9404548,102.696563 92.7513062,102.696563 C89.5621575,102.696563 86.6388151,102.491767 83.9811912,102.08217 C81.3235673,101.672572 79.6341032,101.132656 78.9127482,100.462406 C78.1913931,99.7921556 77.830721,98.712324 77.830721,97.2228786 L77.830721,63.933942 L73.3887147,63.933942 C72.2497331,75.9239769 68.9277531,85.102546 63.422675,91.4699248 C57.917597,97.8373036 48.3313118,103.180609 34.6635319,107.5 L34.2079415,105.489259 C45.9014865,99.3080608 53.6844111,93.4062222 57.5569488,87.7835661 C61.4294864,82.1609099 63.7833466,74.2111148 64.6185998,63.933942 L63.0240334,63.933942 C63.0240334,64.6786647 62.8531888,65.2371983 62.5114943,65.6095596 C62.1697998,65.9819209 60.897956,66.6707791 58.6959248,67.6761547 C56.4938936,68.6815303 55.1840843,69.1842105 54.7664577,69.1842105 C54.3488311,69.1842105 54.1400209,69.0352682 54.1400209,68.7373792 C54.1400209,68.4394901 54.1969691,67.1548628 54.3108673,64.8834586 C54.4247655,62.6120545 54.4817137,58.7954081 54.4817137,53.4334049 L54.4817137,38.1294307 C51.5962935,40.8849046 47.9136413,43.9009861 43.4336468,47.1777658 L41.9529781,46.0606874 C43.4716203,44.1988808 44.5726194,42.8211645 45.2560084,41.9274973 L33.7523511,41.9274973 L33.7523511,56.226101 L38.7638454,56.226101 L41.9529781,52.0929108 C43.0160276,50.7524101 43.8322856,50.0821697 44.4017764,50.0821697 C44.9712672,50.0821697 46.4709039,51.3295615 48.9007315,53.8243824 C51.330559,56.3192033 52.5454545,57.8830974 52.5454545,58.5161117 C52.5454545,59.149126 51.7481793,59.4656284 50.153605,59.4656284 L33.7523511,59.4656284 L33.7523511,87.1691729 L53.6844305,82.1423201 L54.1400209,84.7116004 L27.1462905,95.7706767 C20.9198574,98.2282615 16.3260336,100.536867 13.3646813,102.696563 C12.8331565,103.068924 12.4155362,103.255102 12.1118077,103.255102 C11.8080793,103.255102 11.5423209,103.10616 11.3145246,102.808271 C11.0867282,102.510382 10.5741942,101.225754 9.776907,98.9543502 C8.97961984,96.682946 8.20132738,94.2812515 7.44200627,91.7491944 C15.3389458,91.078944 21.451389,90.1852902 25.7795193,89.0682062 L25.7795193,59.4656284 L14.0480669,59.4656284 C12.073832,59.4656284 10.5172471,59.7262774 9.37826541,60.2475832 L6.87251829,55.6675618 C8.46709261,56.0399231 10.3274014,56.226101 12.4535005,56.226101 L25.7795193,56.226101 L25.7795193,41.9274973 L16.4399164,41.9274973 C13.2507678,46.2468888 9.26439173,51.2364558 4.48066876,56.896348 L3,55.3324382 C12.7193102,39.7677346 19.7429251,22.4904279 24.0710554,3.5 C29.3863031,5.28733439 32.9550588,6.59057951 34.7774295,7.40977444 C36.5998001,8.22896937 37.5109718,8.86197414 37.5109718,9.30880773 C37.5109718,9.8301136 36.9414895,10.2210871 35.8025078,10.4817401 C34.6635262,10.742393 33.8852337,11.1333665 33.4676071,11.6546724 C33.0499805,12.1759783 32.3855845,13.5164589 31.4743992,15.6761547 C37.548968,16.9421832 42.1238091,18.3757528 45.1990596,19.9769066 C48.27431,21.5780603 49.8119122,23.7191058 49.8119122,26.4001074 C49.8119122,28.3363863 49.4322574,29.9188983 48.6729363,31.1476907 C47.9136152,32.3764831 47.0593917,32.99087 46.1102403,32.99087 C45.1610889,32.99087 44.2689,32.208923 43.4336468,30.6450054 C40.5482266,25.5808913 36.2960922,21.2615646 30.677116,17.6868958 Z M63,44.5 L63,60.5 L88,60.5 L88,44.5 L63,44.5 Z M112,35.4053254 L111.886207,37.4289941 C109.762058,37.6538473 108.074144,38.066072 106.822414,38.6656805 C105.570683,39.265289 104.451729,40.539438 103.465517,42.4881657 C103.086205,43.1627253 102.668968,43.5 102.213793,43.5 C101.075856,43.5 97.6620974,40.8205396 91.9724138,35.4615385 C86.2827302,30.1025373 81.9586355,20.1154577 79,5.5 C85.2207208,5.94970639 88.3310345,6.77415574 88.3310345,7.97337278 C88.3310345,8.42307917 87.837936,8.8915163 86.8517241,9.37869822 C85.8655123,9.86588015 85.3724138,10.709067 85.3724138,11.908284 C85.3724138,14.0069138 87.2879119,17.6981984 91.1189655,22.9822485 C94.9500192,28.2662986 101.910294,32.4072828 112,35.4053254 Z M41.3815789,60.5 C44.36405,61.6267662 46.7127107,62.6408406 48.4276316,63.5422535 C50.1425524,64.4436665 51,65.1197161 51,65.5704225 C51,66.021129 50.5526361,66.3591538 49.6578947,66.584507 C48.7631534,66.8098603 47.7193042,67.8239346 46.5263158,69.6267606 C43.6184065,74.2840608 39.8530933,79.2417577 35.2302632,84.5 L34,83.3732394 C37.0570328,76.8379955 39.5175345,69.2136586 41.3815789,60.5 Z M11.6106195,63.5 C16.2124124,66.3437642 19.2610545,68.7499902 20.7566372,70.71875 C22.2522199,72.6875098 23,74.820301 23,77.1171875 C23,79.414074 22.3289153,81.2187434 20.9867257,82.53125 C19.6445361,83.8437566 18.2831927,84.5 16.9026549,84.5 C16.2123859,84.5 15.6755181,84.2265652 15.2920354,83.6796875 C14.9085527,83.1328098 14.7168142,82.3489634 14.7168142,81.328125 L14.7168142,78.921875 C14.7168142,75.9322767 14.3333372,73.5078218 13.5663717,71.6484375 C12.7994062,69.7890532 11.6106275,67.5468881 10,64.921875 L11.6106195,63.5 Z" id="銳" fill="#ffffff" mask="url(#mask-2)" transform="translate(57.500000, 55.500000) rotate(9.000000) translate(-57.500000, -55.500000) "></path>
    </g>
</svg>
